#N canvas 1 40 1364 692 10;
#X obj 206 -20 soundfiler;
#X obj 223 181 udpsend 8001;
#X obj 221 128 packOSC;
#X msg 206 22 /home/john/pd.wav;
#X obj 206 1 t b;
#X obj 552 404 r aubiotoggle;
#X obj 649 301 r aubiolength;
#X obj 497 299 r getmarked;
#X obj 24 -141 r processtarget;
#X obj 415 392 r mosaic;
#X text 343 46 Send Connect and disconnect messages here;
#X obj 415 443 r savemosaic;
#X obj -71 293 r fixedlength;
#X obj 15 410 print list;
#X obj -133 291 r chop;
#X text 108 308 We want to make sure chop also gets passed if we switch
fixed length on.;
#X obj 177 244 r togglebpm;
#X obj 615 86 r crossfade;
#X msg 508 -43 disconnect;
#X msg 433 -106 connect 127.0.0.1 8001;
#X obj -373 6 cnv 15 250 200 empty empty Control 40 12 0 14 -159808
-66577 0;
#X obj -358 37 tgl 30 0 \$0_toggle empty Connect 35 7 0 10 -4034 -1
-1 1 1;
#X obj 428 -173 r \$0_toggle;
#X obj 428 -147 select 0 1;
#X obj 205 -78 r setthetarget;
#X msg 206 -46 write -wave /home/john/pd.wav targetBuffer;
#X obj 792 84 r sourceselection;
#X obj -247 36 output~;
#X obj -345 -112 catch~ bus;
#X obj -106 1 loadbang;
#X msg -106 33 0.8;
#X obj -292 450 s savemosaic;
#X text -309 354 Enter save name here (optional);
#X obj -346 411 bng 15 250 50 0 empty empty empty 17 7 0 10 -262144
-1 -1;
#X obj -356 91 bng 30 250 50 0 \$0_save empty Save_Mosaic 32 7 0 10
-4034 -1 -1;
#X obj -358 152 bng 30 250 50 0 \$0_playboth empty PlayBoth! 40 15
0 10 -4034 -1 -1;
#X msg -71 54 \; pd dsp 1 \;;
#X obj 609 -8 unpackOSC;
#X obj 609 -31 udpreceive 8000;
#X obj 610 48 s loadmosaic;
#X obj -293 241 r \$0_playboth;
#X obj -338 305 s targetplay;
#X obj -252 307 s mosaicplay;
#X msg -290 277 1;
#X obj -357 377 r \$0_save;
#X obj -108 -109 r analysecorpus;
#X obj -234 128 vsl 15 50 0 1 0 0 target_vol empty Target_Vol -15 -9
0 6 -204786 -1 -1 3650 1;
#X obj -179 128 vsl 15 50 0 1 0 0 mosaic_vol empty Mosaic_Vol -15 -9
0 6 -261234 -1 -1 2450 1;
#X obj -247 -124 r savename;
#X obj -242 -74 writesf~;
#X msg -239 -97 open \$1;
#X obj -264 -149 r startRecording;
#X obj -307 -174 r stopRecording;
#X obj -98 324 spigot;
#X obj 696 48 s loadmarked;
#X obj 786 46 s loadtarget;
#X obj 876 45 s contextResult;
#X msg -289 389 anotherPitchExample.wav;
#X obj -108 -80 prepend /analyseCorpus;
#X obj 25 -115 prepend /processTarget;
#X obj 206 48 prepend /setTarget;
#X obj 617 108 prepend /setCrossfade;
#X obj 141 279 prepend /toggleBPM;
#X obj 618 166 prepend /setCost;
#X obj 618 139 r setcost;
#X obj 789 145 r tracklength;
#X obj 790 171 prepend /trackLength;
#X text 790 187 0 for stretch \, 1 for silence;
#X obj 417 470 prepend /saveMosaic;
#X obj 497 320 prepend /getMarkedAudio;
#X obj 653 247 r setonsets;
#X obj 653 271 prepend /setOnsets;
#X obj 649 323 prepend /setAubioLength;
#X obj 541 376 prepend /useLabel;
#X obj 543 352 r uselabel;
#X obj 553 428 prepend /setAubio;
#X obj 556 457 r setconstraints;
#X obj 558 486 prepend /setConstraints;
#X obj 692 458 prepend /setHLConstraints;
#X obj -88 361 prepend /toggleFixed;
#X msg -50 126 0.5;
#X obj 791 115 prepend /setSourceCorpus;
#X obj 690 429 r sethlconstraints;
#X obj 792 211 r tracklengthtype;
#X obj 792 236 prepend /trackLengthType;
#X obj 688 351 r uselabelthreshold;
#X obj 686 375 prepend /useLabelThreshold;
#X obj 60 140 r highscope;
#X obj 65 71 r lowscope;
#X obj 65 98 prepend /setLowScope;
#X obj 58 174 prepend /setHighScope;
#X obj -43 176 r highlevel;
#X obj -46 206 prepend /toggleHighLevel;
#X obj 415 417 prepend /createMosaic;
#X obj 609 16 routeOSC /loadMosaic /loadMarked /loadTarget /contextresults
;
#X obj 51 -65 r loadlasttarget;
#X msg 66 -5 /loadLastTarget;
#X connect 0 0 4 0;
#X connect 2 0 1 0;
#X connect 3 0 60 0;
#X connect 4 0 3 0;
#X connect 5 0 75 0;
#X connect 6 0 72 0;
#X connect 7 0 69 0;
#X connect 8 0 59 0;
#X connect 9 0 93 0;
#X connect 11 0 68 0;
#X connect 12 0 53 1;
#X connect 14 0 53 0;
#X connect 16 0 62 0;
#X connect 17 0 61 0;
#X connect 18 0 1 0;
#X connect 19 0 1 0;
#X connect 22 0 23 0;
#X connect 23 0 18 0;
#X connect 23 1 19 0;
#X connect 24 0 25 0;
#X connect 25 0 0 0;
#X connect 26 0 81 0;
#X connect 28 0 27 0;
#X connect 28 0 27 1;
#X connect 28 0 49 0;
#X connect 29 0 30 0;
#X connect 29 0 36 0;
#X connect 29 0 80 0;
#X connect 30 0 27 2;
#X connect 37 0 94 0;
#X connect 38 0 37 0;
#X connect 40 0 43 0;
#X connect 43 0 41 0;
#X connect 43 0 42 0;
#X connect 44 0 31 0;
#X connect 45 0 58 0;
#X connect 48 0 50 0;
#X connect 50 0 49 0;
#X connect 51 0 49 0;
#X connect 52 0 49 0;
#X connect 53 0 79 0;
#X connect 57 0 31 0;
#X connect 58 0 2 0;
#X connect 59 0 2 0;
#X connect 60 0 2 0;
#X connect 61 0 2 0;
#X connect 62 0 2 0;
#X connect 63 0 2 0;
#X connect 64 0 63 0;
#X connect 65 0 66 0;
#X connect 66 0 2 0;
#X connect 68 0 2 0;
#X connect 69 0 2 0;
#X connect 70 0 71 0;
#X connect 71 0 2 0;
#X connect 72 0 2 0;
#X connect 73 0 2 0;
#X connect 74 0 73 0;
#X connect 75 0 2 0;
#X connect 76 0 77 0;
#X connect 77 0 2 0;
#X connect 78 0 2 0;
#X connect 79 0 13 0;
#X connect 79 0 2 0;
#X connect 80 0 47 0;
#X connect 80 0 46 0;
#X connect 81 0 2 0;
#X connect 82 0 78 0;
#X connect 83 0 84 0;
#X connect 84 0 2 0;
#X connect 85 0 86 0;
#X connect 86 0 2 0;
#X connect 87 0 90 0;
#X connect 88 0 89 0;
#X connect 89 0 2 0;
#X connect 90 0 2 0;
#X connect 91 0 92 0;
#X connect 92 0 2 0;
#X connect 93 0 2 0;
#X connect 94 0 39 0;
#X connect 94 1 54 0;
#X connect 94 2 55 0;
#X connect 94 3 56 0;
#X connect 95 0 96 0;
#X connect 96 0 2 0;
#X coords 0 -1 1 1 250 200 1 -374 5;
