#N canvas 1 27 1364 705 10;
#X text 145 -67 Play the buffer;
#X obj 111 90 cnv 15 470 230 empty empty Segmenter 65 30 0 14 -4160
-66577 0;
#X obj 124 171 tgl 30 0 \$0_play \$0_finished Play 0 -10 0 10 -4034
-1 -1 0 1;
#N canvas 0 0 450 300 (subpatch) 0;
#X array markedBuffer 100 float 2;
#X coords 0 1 100 -1 150 70 1;
#X restore 197 159 graph;
#X obj 350 95 tgl 15 0 fixedlength empty Fixed 17 5 0 8 -257985 -1
-1 0 1;
#X text 859 201 Get marked audio here;
#X obj 830 339 print sending;
#X obj 882 289 s getmarked;
#X text 834 45 Reprocess target here;
#X obj 351 159 tgl 15 0 \$0_onsets empty Onsets 17 5 0 8 -257985 -1
-1 0 1;
#X obj 351 127 tgl 15 0 \$0_bpm empty BPM 17 5 0 8 -257985 -1 -1 0
1;
#X obj 422 369 f;
#X obj 422 396 s chop;
#X floatatom 308 344 5 0 0 0 - - -;
#X obj 392 338 select 0 1;
#X obj 590 93 r \$0_bpm;
#X obj 589 122 select 0 1;
#X msg 613 160 0;
#X obj 599 211 r fixedlength;
#X obj 599 252 select 0 1;
#X msg 629 286 0;
#X obj 687 252 select 0 1;
#X msg 711 290 0;
#X obj 687 211 r \$0_onsets;
#X obj 353 182 onset_detection;
#X obj 130 241 bng 30 250 50 0 \$0_markaudio empty Mark_Target 35 7
0 10 -258113 -1 -1;
#X obj 129 281 bng 30 250 50 0 processtarget empty Reprocess_Target
35 7 0 10 -258113 -1 -1;
#X obj 872 248 r \$0_markaudio;
#X obj 472 339 spigot;
#X obj 472 366 s chop;
#X obj 557 380 s fixedlength;
#X msg 597 286 0;
#X obj 770 118 r \$0_bpm;
#X obj 774 170 s togglebpm;
#X obj -128 171 soundfiler;
#X obj -128 148 prepend read -resize -maxsize 1e+07;
#X obj -128 124 list append markedBuffer;
#X obj 418 96 tgl 10 0 \$0_send500 \$0_set500 500 -5 17 0 8 -159808
-1 -257985 0 1;
#X obj 449 96 tgl 10 0 \$0_send1000 \$0_set1000 1000 -5 17 0 8 -159808
-1 -257985 0 1;
#X obj 486 96 tgl 10 0 \$0_send1250 \$0_set1250 1250 -5 17 0 8 -159808
-1 -257985 0 1;
#X msg 671 325 1;
#X obj 672 350 s \$0_set500;
#X obj 667 373 s \$0_set1000;
#X obj 657 392 s \$0_set1250;
#X obj 648 -99 r \$0_send500;
#X obj 737 -99 r \$0_send1000;
#X obj 834 -99 r \$0_send1250;
#X obj 648 -70 select 0 1;
#X msg 682 -43 500;
#X obj 682 -18 s chop;
#X obj 743 -71 select 0 1;
#X obj 777 -19 s chop;
#X msg 777 -44 1000;
#X obj 836 -71 select 0 1;
#X obj 870 -19 s chop;
#X msg 870 -44 1250;
#X obj 367 15 select 1;
#X msg 372 43 0;
#X obj 567 25 select 1;
#X msg 578 53 0;
#X obj 447 25 select 1;
#X msg 452 53 0;
#X obj 661 289 t b b;
#X msg 595 349 1;
#X obj 32 526 throw~ bus;
#X obj 57 423 tglstartstop;
#X msg 172 492 0;
#X obj 172 518 s \$0_finished;
#X obj 72 483 r mosaic_vol;
#X obj 37 499 *~;
#X obj 70 386 r \$0_play;
#X obj 31 462 tabplay~ markedBuffer;
#X obj -128 100 r loadmarked;
#X obj 180 -13 loadbang;
#X msg 202 23 1;
#X connect 11 0 12 0;
#X connect 11 0 13 0;
#X connect 14 1 11 0;
#X connect 15 0 16 0;
#X connect 16 1 17 0;
#X connect 17 0 4 0;
#X connect 17 0 9 0;
#X connect 18 0 19 0;
#X connect 19 0 31 0;
#X connect 19 1 20 0;
#X connect 19 1 62 0;
#X connect 20 0 9 0;
#X connect 20 0 10 0;
#X connect 21 1 22 0;
#X connect 22 0 4 0;
#X connect 22 0 10 0;
#X connect 23 0 21 0;
#X connect 27 0 7 0;
#X connect 28 0 29 0;
#X connect 28 0 13 0;
#X connect 31 0 30 0;
#X connect 31 0 43 0;
#X connect 31 0 42 0;
#X connect 31 0 41 0;
#X connect 32 0 33 0;
#X connect 35 0 34 0;
#X connect 36 0 35 0;
#X connect 37 0 56 0;
#X connect 38 0 60 0;
#X connect 39 0 58 0;
#X connect 40 0 41 0;
#X connect 44 0 47 0;
#X connect 45 0 50 0;
#X connect 46 0 53 0;
#X connect 47 1 48 0;
#X connect 48 0 49 0;
#X connect 50 1 52 0;
#X connect 52 0 51 0;
#X connect 53 1 55 0;
#X connect 55 0 54 0;
#X connect 56 0 57 0;
#X connect 57 0 38 0;
#X connect 57 0 39 0;
#X connect 58 0 59 0;
#X connect 59 0 38 0;
#X connect 59 0 37 0;
#X connect 60 0 61 0;
#X connect 61 0 39 0;
#X connect 61 0 37 0;
#X connect 62 0 40 0;
#X connect 62 1 63 0;
#X connect 63 0 30 0;
#X connect 65 0 71 0;
#X connect 66 0 67 0;
#X connect 68 0 69 1;
#X connect 69 0 64 0;
#X connect 70 0 65 0;
#X connect 71 0 69 0;
#X connect 71 1 66 0;
#X connect 72 0 36 0;
#X connect 73 0 74 0;
#X coords 0 -1 1 1 470 230 2 110 90;
