#N canvas 230 59 905 611 10;
#X obj 92 81 cnv 15 250 400 empty \$0_row empty 20 12 0 14 -4032 -66577
0;
#X obj 310 22 tgl 15 0 \$0_loopon \$0_loopoff Loop 17 7 0 10 -262144
-1 -1 0 1;
#X obj 99 100 bng 15 250 50 0 \$0_allplay \$0_repeatall Play_ALL 17
7 0 10 -262144 -1 -1;
#X obj 6 118 s \$0_allplay;
#X obj 5 136 r \$0_allplay;
#X obj 774 248 r \$0_looptimes;
#X obj 1 487 s \$0_finishedloop;
#X obj 755 141 r \$0_finishedloop;
#X obj 759 274 f 0;
#X obj 759 298 <= 0;
#X obj 756 330 select 0;
#X obj 627 355 s \$0_allplay;
#X obj 762 405 r \$0_looptimes;
#X obj 696 426 - 1;
#X obj 730 427 f 0;
#X obj 697 465 s \$0_dec_loop;
#X obj 780 429 t b;
#X msg 781 452 1;
#X obj 791 487 s \$0_loopoff;
#X obj 99 36 inlet;
#X obj 800 352 prepend /next\$1;
#X obj 800 377 s nextrow;
#X obj 74 513 hl_sequencer_buffer;
#X obj 92 131 hl_sequencer_buffer 1;
#X obj 91 209 hl_sequencer_buffer 2;
#X obj 92 288 hl_sequencer_buffer 3;
#X obj 92 373 hl_sequencer_buffer 4;
#X obj 530 83 r \$0_looptimes;
#X obj 512 60 r \$0_finishedloop;
#X obj 515 109 f 0;
#X obj 515 140 select 0;
#X obj 561 180 s \$0_allplay;
#X obj 584 154 bng 15 250 50 0 empty empty empty 17 7 0 10 -262144
-1 -1;
#X obj 489 84 t b;
#X obj 484 109 - 1;
#X obj 455 172 s \$0_dec_loop;
#X obj 247 99 nbx 5 14 0 1e+37 0 0 \$0_looptimes \$0_dec_loop Loop
-37 7 0 10 -262144 -1 -1 0 256;
#X connect 2 0 3 0;
#X connect 4 0 23 0;
#X connect 4 0 24 0;
#X connect 4 0 25 0;
#X connect 4 0 26 0;
#X connect 5 0 8 1;
#X connect 8 0 9 0;
#X connect 9 0 10 0;
#X connect 10 0 11 0;
#X connect 10 0 14 0;
#X connect 10 1 20 0;
#X connect 12 0 14 1;
#X connect 12 0 16 0;
#X connect 13 0 14 1;
#X connect 13 0 15 0;
#X connect 14 0 13 0;
#X connect 16 0 17 0;
#X connect 17 0 18 0;
#X connect 19 0 2 0;
#X connect 20 0 21 0;
#X connect 23 0 6 0;
#X connect 27 0 29 1;
#X connect 28 0 33 0;
#X connect 29 0 30 0;
#X connect 29 0 34 0;
#X connect 30 1 32 0;
#X connect 32 0 31 0;
#X connect 33 0 29 0;
#X connect 34 0 35 0;
#X coords 0 -1 1 1 250 400 1 90 80;
