#N canvas 0 0 1204 705 10;
#X obj 201 101 cnv 30 350 200 empty empty Target_Panel 140 12 0 14
-204786 -66577 0;
#N canvas 0 0 450 300 (subpatch) 0;
#X array targetBuffer 1 float 2;
#X coords 0 1 1 -1 150 70 1;
#X restore 208 145 graph;
#X obj 211 253 bng 15 250 50 0 \$0_load empty Load_Target_File 17 7
0 8 -257985 -1 -1;
#X obj 211 275 bng 15 250 50 0 \$0_clear empty Clear_Buffer 17 7 0
8 -257985 -1 -1;
#X text 93 154 Play the buffer;
#X obj 100 127 throw~ bus;
#X obj 100 23 tabplay~ targetBuffer;
#X obj 375 145 tgl 30 0 \$0_rec \$0_setrec Rec 0 -10 0 10 -258113 -1
-1 0 1;
#X obj 430 143 hsl 40 15 0 1 0 0 \$0_rec_vol empty Rec_Vol -2 -8 0
10 -1 -258113 -258113 3120 1;
#X obj 626 470 hsl 40 15 0 3000 0 0 empty \$0_countdown Rec_Count_In
-2 -8 0 8 -1 -258113 -258113 0 1;
#X obj 410 260 tgl 30 0 targetplay \$0_playfinish Play 0 -10 0 10 -4034
-1 -1 0 1;
#X obj 486 113 vu 15 120 \$0_amp Record_Level -35 130 0 10 -66577 -258113
1 0;
#X obj 200 395 rvu~ 20;
#X obj 201 367 *~ 1;
#X obj 200 425 s \$0_amp;
#X obj 202 310 adc~ 1;
#X obj 262 339 r \$0_rec_vol;
#X text 267 57 EmptyBuffer;
#X obj 267 -3 r \$0_clear;
#X msg 267 25 \; targetBuffer const 0;
#X msg 404 420 stop;
#X msg 466 418 start;
#X obj 404 338 r \$0_rec;
#X obj 405 469 tabwrite~ targetBuffer;
#X text 400 488 Record to the buffer;
#X obj 341 356 r \$0_mon;
#X obj 324 416 throw~ bus;
#X obj 452 257 tgl 15 0 \$0_mon empty Monitor_Input 17 7 0 8 -257985
-1 -1 0 1;
#X obj 560 -21 openpanel;
#X obj 637 33 soundfiler;
#X obj 560 -43 r \$0_load;
#X obj 623 496 nbx 4 14 -1e+37 1e+37 0 0 \$0_rec_delay \$0_countdown
empty 0 -8 0 10 -1 -258113 -1 0 256;
#X obj 99 -11 tglstartstop;
#X obj 701 121 r \$0_rec;
#X text 206 448 Record signal \, receive volume and send level;
#X obj 756 165 r \$0_rec_delay;
#X obj 674 198 metro 1;
#X obj 713 224 f;
#X obj 674 315 s \$0_countdown;
#X obj 755 188 - 1;
#X obj 845 229 select 0;
#X msg 845 250 stop;
#X obj 824 255 bng 15 250 50 0 empty empty empty 17 7 0 10 -262144
-1 -1;
#X obj 844 194 expr if ($f1 == 0 \, 0 \, 1);
#X obj 651 256 expr if ($f1 < 0 \, 0 \, $f1);
#X obj 98 -48 r targetplay;
#X msg 225 49 0;
#X obj 226 75 s \$0_finished;
#X obj 533 10 s setthetarget;
#X obj 109 82 *~;
#X obj 128 53 r target_vol;
#X obj 636 62 s targetSize;
#X obj 404 391 t b b;
#X obj 478 441 s setthetarget;
#X obj 325 382 *~ 0;
#X obj 452 43 loadbang;
#X floatatom 617 306 5 0 0 0 - - -;
#X obj 706 368 moses 1;
#X obj 699 412 t b;
#X obj 404 368 select 0 1;
#X obj 685 563 bng 15 250 50 0 \$0_recStart empty start -12 -7 0 10
-258113 -1 -1;
#X obj 613 166 r \$0_recStart;
#X obj 699 146 select 0;
#X msg 713 174 stop;
#X obj 211 219 hsl 145 10 0 1 0 0 \$0_startsample empty S 150 5 0 10
-4032 -1 -1 0 1;
#X obj 211 232 hsl 145 10 0 1 0 0 \$0_endsample empty E 150 5 0 10
-4032 -1 -1 0 1;
#X obj 379 220 bng 15 250 50 0 \$0_trim empty Trim 17 7 0 8 -257985
-1 -1;
#X obj 787 371 r \$0_trim;
#X obj 857 409 f 0;
#X obj 871 378 r \$0_startsample;
#X obj 853 465 f 0;
#X obj 867 434 r \$0_endsample;
#X obj 787 409 t b b;
#X obj 769 456 pack f f;
#X obj 921 519 prepend /trimtarget;
#X obj 771 514 s trimtarget;
#X obj 687 -41 r loadtarget;
#X obj 1032 71 key;
#X obj 893 121 print k;
#X obj 1032 107 select 114;
#X obj 1044 130 r \$0_rec;
#X obj 1032 173 - 1;
#X obj 1031 196 abs;
#X obj 1030 150 f 0;
#X obj 1064 240 print;
#X obj 1023 313 s \$0_setrec;
#X obj 326 489 r \$0_loop;
#X obj 372 269 tgl 20 0 \$0_loop empty Loop 0 -10 0 10 -4032 -1 -1
0 1;
#X obj 457 643 s \$0_playfinish;
#X obj 227 590 t b;
#X obj 313 639 s \$0_playfinish;
#X obj 146 643 print y;
#X obj 226 566 spigot 0;
#X obj 226 496 r \$0_finished;
#X obj 199 -41 r \$0_looplay;
#X obj 23 95 bng 15 250 50 0 empty empty empty 17 7 0 10 -262144 -1
-1;
#X obj 743 574 bng 15 250 50 0 \$0_recStart empty start -12 -7 0 10
-258113 -1 -1;
#X obj 452 68 f 0.8;
#X obj 37 470 bonk~;
#X obj 83 522 print bonk;
#X obj 116 559 print cooked;
#X msg -39 433 minvel 50;
#X obj -44 557 spigot;
#X msg -11 522 0;
#X msg 24 548 1;
#X obj -44 608 s \$0_setrec;
#X obj 225 615 s \$0_looplay;
#X obj 507 548 expr;
#X obj 345 510 == 0;
#X obj 345 534 select 1;
#X obj 458 618 spigot;
#X obj 312 572 f;
#X msg 357 554 1;
#X msg 398 575 0;
#X obj 312 593 select 1;
#X msg 312 617 0;
#X obj 439 550 t b;
#X obj 266 526 t b;
#X obj 28 510 t b b;
#X obj -73 516 delay 50;
#X msg -34 491 1;
#X obj -37 464 f 0;
#X obj -100 430 select 1;
#X msg -97 456 0;
#X obj 18 269 print \$0_finished;
#X obj 20 242 r \$0_finished;
#X obj -38 370 r \$0_rec;
#X obj 210 107 bng 15 250 50 0 loadlasttarget empty Load_Last_Target
17 7 0 8 -257985 -1 -1;
#X obj -71 254 print;
#X obj -72 222 r loadlasttarget;
#X obj 686 -15 prepend symbol;
#X msg 804 44 /home/john/target_corpus/target/pd20118181036.wav;
#X obj 886 -11 print RCVD target:;
#X msg 637 10 read -resize -maxsize 1e+14 \$1 targetBuffer;
#X connect 6 0 49 0;
#X connect 6 1 46 0;
#X connect 9 0 31 0;
#X connect 12 0 14 0;
#X connect 13 0 12 0;
#X connect 13 0 54 0;
#X connect 13 0 23 0;
#X connect 15 0 13 0;
#X connect 16 0 13 1;
#X connect 18 0 19 0;
#X connect 20 0 23 0;
#X connect 21 0 23 0;
#X connect 22 0 59 0;
#X connect 25 0 54 1;
#X connect 28 0 133 0;
#X connect 28 0 48 0;
#X connect 29 0 51 0;
#X connect 30 0 28 0;
#X connect 32 0 6 0;
#X connect 33 0 62 0;
#X connect 35 0 39 0;
#X connect 36 0 37 0;
#X connect 37 0 43 0;
#X connect 37 0 44 0;
#X connect 37 0 56 0;
#X connect 39 0 37 1;
#X connect 40 0 41 0;
#X connect 40 0 42 0;
#X connect 43 0 40 0;
#X connect 44 0 38 0;
#X connect 44 0 57 0;
#X connect 45 0 32 0;
#X connect 46 0 47 0;
#X connect 49 0 5 0;
#X connect 50 0 49 1;
#X connect 52 0 53 0;
#X connect 52 1 20 0;
#X connect 54 0 26 0;
#X connect 55 0 97 0;
#X connect 57 0 58 0;
#X connect 59 0 52 0;
#X connect 59 1 21 0;
#X connect 61 0 36 0;
#X connect 62 0 63 0;
#X connect 63 0 36 0;
#X connect 67 0 72 0;
#X connect 68 0 73 0;
#X connect 69 0 68 1;
#X connect 70 0 73 0;
#X connect 71 0 70 1;
#X connect 72 0 70 0;
#X connect 72 1 68 0;
#X connect 73 0 75 0;
#X connect 76 0 130 0;
#X connect 77 0 79 0;
#X connect 79 0 83 0;
#X connect 80 0 83 1;
#X connect 81 0 82 0;
#X connect 82 0 84 0;
#X connect 83 0 81 0;
#X connect 86 0 92 1;
#X connect 86 0 108 0;
#X connect 89 0 91 0;
#X connect 89 0 106 0;
#X connect 92 0 89 0;
#X connect 93 0 92 0;
#X connect 93 0 117 0;
#X connect 94 0 6 0;
#X connect 95 0 6 0;
#X connect 97 0 8 0;
#X connect 98 0 99 0;
#X connect 98 0 118 0;
#X connect 98 1 100 0;
#X connect 101 0 98 0;
#X connect 102 0 105 0;
#X connect 103 0 102 1;
#X connect 104 0 102 1;
#X connect 108 0 109 0;
#X connect 109 0 112 0;
#X connect 109 1 116 0;
#X connect 110 0 88 0;
#X connect 111 0 114 0;
#X connect 112 0 111 1;
#X connect 113 0 111 1;
#X connect 114 0 115 0;
#X connect 115 0 90 0;
#X connect 116 0 113 0;
#X connect 117 0 111 0;
#X connect 118 0 121 0;
#X connect 118 1 104 0;
#X connect 119 0 102 0;
#X connect 119 0 120 0;
#X connect 120 0 119 0;
#X connect 120 0 121 1;
#X connect 122 0 123 0;
#X connect 125 0 124 0;
#X connect 129 0 128 0;
#X connect 130 0 133 0;
#X connect 133 0 29 0;
#X coords 0 -1 1 1 350 200 2 200 100;
