#N canvas 85 139 1055 496 10;
#X obj 313 405 f;
#X obj 126 411 pack s f;
#X obj 182 411 print packed;
#X obj 224 540 t l;
#X obj 126 537 list append;
#X text 253 539 Store the list;
#X obj 223 579 print stored;
#X obj 16 521 bng 15 250 50 0 empty empty empty 17 7 0 10 -262144 -1
-1;
#X obj 40 537 list prepend;
#X obj -8 619 print sending;
#X text -15 520 Send;
#X obj 216 506 bng 15 250 50 0 empty empty empty 17 7 0 10 -262144
-1 -1;
#X text 242 506 Clear;
#X obj 312 327 bng 15 250 50 0 empty empty empty 17 7 0 10 -262144
-1 -1;
#X obj 226 266 t f b;
#X msg -212 173 metadata.audio_properties.length;
#X msg -211 198 hpcp.mean;
#X obj 88 618 s setconstraints;
#X msg -210 226 spectral_energy.mean;
#X msg -212 255 spectral_flatness_db.mean;
#X msg -209 285 spectral_flux.mean;
#X msg -210 344 spectral_spread.mean;
#X msg -209 374 zerocrossingrate.mean;
#X msg -209 401 mfcc.mean;
#X msg -210 432 barkbands.mean;
#X msg -207 463 bpm;
#X msg -209 489 pitch.mean;
#X obj 25 108 select 0 1 2 3 4 5 6 7 8 9 10 11 12 13 14 15 16 17;
#X text 310 305 Append descriptor;
#X msg -210 315 spectral_rms.mean;
#X msg -211 514 spectral_contrast.mean;
#X msg -210 540 spectral_centroid.mean;
#X msg -208 567 mood_happy.all.happy;
#X msg -209 595 mood_sad.all.sad;
#X msg -208 648 mood_relaxed.all.relaxed;
#X obj 374 389 r \$0_weight;
#X obj 530 341 cnv 15 250 240 empty empty empty 20 12 0 8 -99865 -4160
0;
#X obj 540 364 vradio 15 1 0 14 empty empty Low_Level_Similarity_Parameters
0 -8 0 8 -4160 -1 -4160 0;
#X obj 721 402 hsl 30 15 0 1 0 0 \$0_weight empty Weight -2 -8 0 10
-257985 -1 -1 0 1;
#X floatatom 730 422 5 0 0 0 - - -;
#X text 558 361 length;
#X text 558 376 hpcp;
#X text 557 406 spectral flatness;
#X text 558 392 spectral energy;
#X text 557 421 spectral flux;
#X text 559 436 spectral rms;
#X text 558 450 spectral spread;
#X text 558 466 zerocrossingrate;
#X text 561 481 mfcc;
#X text 560 497 barkbands;
#X text 562 512 bpm;
#X text 562 526 pitch;
#X text 558 541 spectral contrast;
#X text 558 555 spectral centroid;
#X obj 721 466 bng 30 250 50 0 \$0_clear empty Clear 0 -7 0 10 -4034
-1 -1;
#X obj 721 521 bng 30 250 50 0 \$0_send empty Send 0 -7 0 10 -4034
-1 -1;
#X obj 190 482 r \$0_clear;
#X obj 40 504 r \$0_send;
#X msg -208 621 mood_aggressive.all.aggressive;
#X connect 0 0 1 1;
#X connect 1 0 2 0;
#X connect 1 0 4 0;
#X connect 3 0 4 1;
#X connect 4 0 3 0;
#X connect 4 0 6 0;
#X connect 4 0 8 1;
#X connect 7 0 8 0;
#X connect 8 0 17 0;
#X connect 8 0 9 0;
#X connect 11 0 4 1;
#X connect 11 0 8 1;
#X connect 13 0 0 0;
#X connect 14 0 27 0;
#X connect 14 1 0 0;
#X connect 15 0 1 0;
#X connect 16 0 1 0;
#X connect 18 0 1 0;
#X connect 19 0 1 0;
#X connect 20 0 1 0;
#X connect 21 0 1 0;
#X connect 22 0 1 0;
#X connect 23 0 1 0;
#X connect 24 0 1 0;
#X connect 25 0 1 0;
#X connect 26 0 1 0;
#X connect 27 0 15 0;
#X connect 27 1 16 0;
#X connect 27 2 18 0;
#X connect 27 3 19 0;
#X connect 27 4 20 0;
#X connect 27 5 29 0;
#X connect 27 6 21 0;
#X connect 27 7 22 0;
#X connect 27 8 23 0;
#X connect 27 9 24 0;
#X connect 27 10 25 0;
#X connect 27 11 26 0;
#X connect 27 12 30 0;
#X connect 27 13 31 0;
#X connect 27 14 32 0;
#X connect 27 15 33 0;
#X connect 27 16 58 0;
#X connect 27 17 34 0;
#X connect 29 0 1 0;
#X connect 30 0 1 0;
#X connect 31 0 1 0;
#X connect 32 0 1 0;
#X connect 33 0 1 0;
#X connect 34 0 1 0;
#X connect 35 0 0 1;
#X connect 37 0 14 0;
#X connect 38 0 39 0;
#X connect 56 0 4 1;
#X connect 56 0 8 1;
#X connect 57 0 8 0;
#X connect 58 0 1 0;
#X coords 0 -1 1 1 250 240 2 530 340;
