#N canvas 752 140 450 300 10;
#X obj 67 65 inlet;
#X obj 72 109 select 0 1;
#X obj 135 163 print tglstartstop: invalid param;
#X obj 76 220 outlet;
#X msg 21 252 start;
#X msg 46 162 stop;
#X connect 0 0 1 0;
#X connect 1 0 5 0;
#X connect 1 1 3 0;
#X connect 1 2 2 0;
#X connect 5 0 3 0;
