#N canvas 337 0 855 705 10;
#X obj 20 20 cnv 15 250 350 empty empty Corpus_Manager 40 12 0 14 -13330
-257985 0;
#X text 339 381 Pick the source corpus;
#X msg -78 561 melodies;
#X obj 35 42 vradio 15 1 0 20 empty empty empty 0 -8 0 10 -262144 -1
-1 0;
#X text 50 115 melodies;
#X obj 338 481 s sourceselection;
#X symbolatom 162 161 10 0 0 0 - #0_setchoice -;
#X text 158 137 selected corpus;
#X obj 240 531 s \$0_setchoice;
#X obj 240 476 t a a;
#X obj 240 504 prepend set;
#X text 52 129 motown;
#X msg -78 588 motown;
#X text 52 143 breaks;
#X text 52 157 sunra;
#X msg -77 614 breaks;
#X msg -76 641 sunra;
#X obj 176 188 bng 30 250 50 0 analysecorpus empty Analyse -10 35 0
10 -258113 -1 -1;
#X text 52 172 mixedcorpus;
#X msg -76 667 mixedcorpus;
#X msg -78 540 monophonic_music;
#X text 52 99 monophonic_music;
#X text 53 40 delia;
#X text 52 55 loveless;
#X text 52 69 erhu;
#X text 52 82 antony;
#X msg -78 438 delia;
#X msg -77 462 loveless;
#X msg -77 488 erhu;
#X msg -79 513 antony;
#X text 52 190 eno;
#X text 51 206 freedrums;
#X text 52 221 axechords;
#X msg 74 514 eno;
#X msg 75 539 freedrums;
#X msg 73 561 axechords;
#X text 54 236 mirrors;
#X text 55 267 lisbon;
#X text 55 252 ghost;
#X text 58 283 klf;
#X text 57 296 Plunderphonicsalbum;
#X msg 74 585 mirrors;
#X msg 75 608 ghost;
#X msg 74 633 lisbon;
#X msg 75 683 Plunderphonicsalbum;
#X msg 76 660 klf;
#X msg 182 612 piano;
#X text 58 311 piano;
#X obj -53 401 select 0 1 2 3 4 5 6 7 8 9 10 11 12 13 14 15 16 17 18
19;
#X msg 399 557 outtakeaxeandvox;
#X text 58 326 chat;
#X msg 184 634 chat;
#X msg 548 497 gamjam;
#X connect 2 0 9 0;
#X connect 3 0 48 0;
#X connect 9 0 10 0;
#X connect 9 1 5 0;
#X connect 10 0 8 0;
#X connect 12 0 9 0;
#X connect 15 0 9 0;
#X connect 16 0 9 0;
#X connect 19 0 9 0;
#X connect 20 0 9 0;
#X connect 26 0 9 0;
#X connect 27 0 9 0;
#X connect 28 0 9 0;
#X connect 29 0 9 0;
#X connect 33 0 9 0;
#X connect 34 0 9 0;
#X connect 35 0 9 0;
#X connect 41 0 9 0;
#X connect 42 0 9 0;
#X connect 43 0 9 0;
#X connect 44 0 9 0;
#X connect 45 0 9 0;
#X connect 46 0 9 0;
#X connect 48 0 26 0;
#X connect 48 1 27 0;
#X connect 48 2 28 0;
#X connect 48 3 29 0;
#X connect 48 4 20 0;
#X connect 48 5 2 0;
#X connect 48 6 12 0;
#X connect 48 7 15 0;
#X connect 48 8 16 0;
#X connect 48 9 19 0;
#X connect 48 10 33 0;
#X connect 48 11 34 0;
#X connect 48 12 35 0;
#X connect 48 13 41 0;
#X connect 48 14 42 0;
#X connect 48 15 43 0;
#X connect 48 16 45 0;
#X connect 48 17 44 0;
#X connect 48 18 46 0;
#X connect 48 19 51 0;
#X connect 49 0 9 0;
#X connect 51 0 9 0;
#X connect 52 0 9 0;
#X coords 0 -1 1 1 250 350 1 20 20;
