#N canvas 415 41 950 691 10;
#X obj 22 514 r tracklength;
#X obj 22 545 select 1;
#X msg 67 577 0;
#X msg 23 575 1;
#X obj -10 354 select 1;
#X msg -10 423 0;
#X obj 112 357 select 1;
#X msg 113 424 0;
#X obj 112 325 r \$0_silencesend;
#X obj -10 322 r \$0_stretchsend;
#X obj 113 456 s \$0_stretchrec;
#X obj -9 453 s \$0_silencerec;
#X obj -17 623 s \$0_stretchrec;
#X obj 121 618 s \$0_stretchrec;
#X obj 101 644 s \$0_silencerec;
#X obj 147 509 s tracklengthtype;
#X msg 33 420 1;
#X msg 488 344 major;
#X msg 567 347 minor;
#X obj 488 246 r \$0_major;
#X obj 567 233 r \$0_minor;
#X obj 65 39 cnv 15 190 200 empty empty empty 20 12 0 14 -228856 -66577
0;
#X obj 79 171 tgl 15 0 \$0_trackkey empty Track_Key 17 5 0 8 -257985
-1 -1 0 1;
#X obj 73 74 tgl 15 0 tracklength empty Track_Length 17 5 0 8 -257985
-1 -1 0 1;
#X obj 86 100 tgl 10 0 \$0_stretchsend \$0_stretchrec Stretch -5 17
0 8 -159808 -1 -258113 0 1;
#X obj 136 100 tgl 10 0 \$0_silencesend \$0_silencerec Silence -5 17
0 8 -159808 -1 -258113 0 1;
#X obj 518 68 tgl 15 0 \$0_major \$0_major_off Major_Scale 20 5 0 8
-257985 -1 -1 0 1;
#X obj 518 94 tgl 15 0 \$0_minor \$0_minor_off Minor_Scale 20 5 0 8
-257985 -1 -1 0 1;
#X text 514 41 High level labels;
#X text 66 46 Low level unit tracking;
#X text 77 146 High level tracking;
#X text 267 506 1 means stretch \, 0 means silence;
#X obj 271 269 r \$0_trackkey;
#X msg 293 316 key;
#X obj 376 372 s uselabel;
#X obj 79 197 tgl 15 0 \$0_trackscale empty Track_Scale 17 5 0 8 -257985
-1 -1 0 1;
#X obj 517 401 s uselabel;
#X obj 375 269 r \$0_trackscale;
#X msg 375 310 scale;
#X connect 0 0 1 0;
#X connect 1 0 3 0;
#X connect 1 1 2 0;
#X connect 2 0 13 0;
#X connect 2 0 14 0;
#X connect 3 0 12 0;
#X connect 4 0 5 0;
#X connect 4 0 16 0;
#X connect 5 0 11 0;
#X connect 6 0 7 0;
#X connect 7 0 10 0;
#X connect 7 0 15 0;
#X connect 8 0 6 0;
#X connect 9 0 4 0;
#X connect 16 0 15 0;
#X connect 19 0 17 0;
#X connect 20 0 18 0;
#X connect 32 0 33 0;
#X connect 33 0 34 0;
#X connect 37 0 38 0;
#X connect 38 0 34 0;
#X coords 0 -1 1 1 190 200 2 65 40;
