#N canvas 241 156 1124 485 10;
#X obj -270 66 soundfiler;
#X obj -270 91 t f b;
#X obj -270 143 s mosaicSize;
#X obj -270 19 list append playBuffer;
#X text -275 -73 Legacy code for autoplay from OSC also note how the
mosaic size is sent in order to resize the effects buffer for copying
the playBuffer.;
#X obj -218 112 s \$0_play;
#X text 344 -113 Play the buffer;
#X obj -32 328 s mosaic;
#X obj -5 251 r \$0_remosaic;
#X obj 310 54 throw~ bus;
#X obj 584 263 tgl 15 0 togglecontinuity togglecontinuity Continuity
17 5 0 8 -257985 -1 -1 0 1;
#X obj 584 240 tgl 15 0 togglecontext togglecontext Use_Context 20
5 0 8 -257985 -1 -1 0 1;
#X msg -4 274 target;
#X obj 309 -10 tabplay~ playBuffer;
#X obj -270 -5 r loadmosaic;
#X obj 335 -49 tglstartstop;
#X obj 348 -86 r mosaicplay;
#X msg 450 20 0;
#X obj 450 46 s \$0_finished;
#X msg -95 262 pd2011522127;
#X obj -270 43 prepend read -resize -maxsize 1e+07;
#X obj 350 11 r mosaic_vol;
#X obj 315 27 *~;
#X obj -99 -16 print recvd loadmosaic;
#X obj 101 80 cnv 15 280 200 empty empty Create_Mosaic 10 12 0 14 -261234
-66577 0;
#X obj 268 203 tgl 30 0 mosaicplay \$0_finished Play 0 -10 0 10 -4034
-1 -1 0 1;
#X obj 263 147 bng 15 250 50 0 \$0_remosaic empty Re-Mosaic 17 7 0
10 -258113 -1 -1;
#N canvas 1 27 450 300 (subpatch) 0;
#X array playBuffer 100 float 2;
#X coords 0 1 100 -1 150 70 1;
#X restore 108 174 graph;
#X obj 263 86 bng 50 250 50 0 processtarget empty empty 55 30 0 10
-258113 -1 -1;
#X obj 110 246 hsl 145 10 0 1 0 0 mosaicStart empty Start 150 5 0 10
-4032 -1 -1 0 1;
#X obj 110 263 hsl 145 10 0 1 0 0 mosaicEnd empty End 150 5 0 10 -4032
-1 -1 0 1;
#X obj 310 242 nbx 5 14 -1e+37 1e+37 0 0 empty mosaicStart empty 0
-8 0 10 -262144 -1 -1 0 256;
#X obj 311 259 nbx 5 14 -1e+37 1e+37 0 0 empty mosaicEnd empty 0 -8
0 10 -262144 -1 -1 0 256;
#X connect 0 0 1 0;
#X connect 1 0 2 0;
#X connect 3 0 20 0;
#X connect 8 0 12 0;
#X connect 12 0 7 0;
#X connect 13 0 22 0;
#X connect 13 1 17 0;
#X connect 14 0 3 0;
#X connect 14 0 23 0;
#X connect 15 0 13 0;
#X connect 16 0 15 0;
#X connect 17 0 18 0;
#X connect 19 0 7 0;
#X connect 20 0 0 0;
#X connect 21 0 22 1;
#X connect 22 0 9 0;
#X coords 0 -1 1 1 280 200 2 100 80;
