#N canvas 0 36 1351 656 10;
#X obj 1060 51 r \$0_audition;
#X obj 1060 76 select 0 1;
#X text 1060 541 Keep it manual for now. If we get a mosaic size don't
automatically resize. Only when we copy the playbuffer;
#X obj 1116 129 r mosaicStart;
#X obj 1215 140 r mosaicEnd;
#X obj 360 80 tabplay~ buffer_\$1;
#X obj 429 272 throw~ bus;
#X obj 172 32 table buffer_\$1;
#X obj 1019 223 f 0;
#X obj 993 203 bng 15 250 50 0 empty empty empty 17 7 0 10 -262144
-1 -1;
#X obj 1247 163 r mosaicSize;
#X obj 1167 220 bng 15 250 50 0 empty empty empty 17 7 0 10 -262144
-1 -1;
#X obj 1185 218 f;
#X floatatom 1046 225 5 0 0 0 - - -;
#X floatatom 1218 219 5 0 0 0 - - -;
#X obj 1267 255 / 44.1;
#X obj 980 396 *~ 0;
#X obj 1083 260 select 0;
#X msg 1021 362 1;
#X msg 1062 369 0;
#X obj 1102 370 del;
#X obj 1167 380 del;
#X obj 1091 164 t b b;
#X floatatom 1237 350 5 0 0 0 - - -;
#X obj 1124 503 line 0 20;
#X obj 874 563 throw~ bus;
#X obj 924 434 outlet;
#X obj 354 -8 inlet;
#X text 922 452 Play row;
#X obj 1177 409 r \$0_turnoff;
#X obj 1007 133 s \$0_turnoff;
#X obj 4 25 t b b b b;
#X msg 85 82 \; buffer_\$1 const 0;
#X obj 23 339 tabwrite~ buffer_\$1;
#X obj 79 178 pack \$1 f;
#X floatatom 139 178 5 0 0 0 - - -;
#X msg 65 204 \; buffer_\$1 resize \$2;
#X obj 86 61 pack \$1;
#X obj 132 152 r targetSize;
#X obj 4 250 tabplay~ targetBuffer;
#X obj 956 260 tabplay~ playBuffer;
#X obj 1151 437 t b b;
#X msg 1180 466 20;
#X msg 1149 465 0;
#X obj 880 344 s \$0_finished;
#X msg 895 316 0;
#X obj 1153 165 *;
#X obj 1272 206 *;
#X obj 1069 416 t b b;
#X msg 1098 445 20;
#X msg 1067 444 1;
#X obj 1042 482 line 1 20;
#X obj 1068 341 t b b b f;
#X obj 1148 305 nbx 5 14 -1e+37 1e+37 0 0 empty empty empty 0 -8 0
10 -262144 -1 -1 0 256;
#X obj 1178 346 t b f;
#X obj 997 328 t b b;
#X obj 1098 304 / 44.1;
#X obj 394 -7 r \$0_play;
#X obj 394 16 select 0 1;
#X msg 364 42 stop;
#X msg 465 104 0;
#X obj 465 128 s \$0_stopplay;
#X obj 105 -29 cnv 15 225 60 empty empty empty 20 12 0 14 -257985 -66577
0;
#X obj -1 -9 r \$0_copytarget;
#X obj 200 -17 tgl 15 0 \$0_audition \$0_finished Audition 18 10 0
8 -261234 -1 -13381 0 1;
#X obj 106 -11 bng 15 250 50 0 \$0_copytarget empty Copy_Target 17
7 0 8 -262144 -1 -1;
#X obj 106 13 bng 15 250 50 0 \$0_copymosaic empty Copy_Mosaic 17 7
0 8 -262144 -1 -1;
#X obj 280 10 tgl 15 0 \$0_play \$0_stopplay Play 17 7 0 8 -4034 -1
-1 0 1;
#X obj 7 305 *~ 1;
#X obj 44 308 r target_vol;
#X obj 503 97 outlet;
#X obj 876 432 *~ 1;
#X obj 909 374 r mosaic_vol;
#X obj 280 -14 tgl 15 0 \$0_mute empty Mute 17 7 0 8 -4032 -1 -1 0
1;
#X obj 430 242 *~ 1;
#X obj 463 162 r \$0_mute;
#X obj 463 188 select 1;
#X msg 508 211 1;
#X msg 463 210 0;
#X obj 200 9 tgl 15 0 \$0_recmos \$0_recmosoff Record 18 10 0 8 -258113
-1 -13381 0 1;
#X text 141 60 First bang clears the buffer.;
#X text 82 116 Second bang resizes the buffer from the size received
when the target was loaded.;
#X text 27 268 Final 2 bangs play and record respectively. Volume is
set from the target panel in the framework.;
#X obj 14 415 t b b b b;
#X msg 167 409 \; buffer_\$1 const 0;
#X obj 29 515 tabwrite~ buffer_\$1;
#X obj 163 471 pack \$1 f;
#X msg 163 496 \; buffer_\$1 resize \$2;
#X obj 168 388 pack \$1;
#X obj 13 481 *~ 1;
#X obj 9 381 r \$0_copymosaic;
#X obj 49 480 r mosaic_vol;
#X floatatom 223 471 5 0 0 0 - - -;
#X obj 216 443 r mosaicSize;
#X text 7 358 The same thing happens for the copymosaic action.;
#X text 449 146 Mutes the buffer;
#X text 475 65 Sends stop play signal;
#X text 353 -30 Signals to play the buffer get routed here;
#X text 421 287 Signals to record the buffer get routed here;
#X obj 379 300 r \$0_recmos;
#X obj 396 487 tabplay~ playBuffer;
#X obj 523 519 line 0 20;
#X obj 523 461 t b b;
#X msg 523 488 0;
#X obj 585 489 t b b;
#X msg 585 517 1;
#X obj 396 534 *~ 1;
#X obj 380 599 throw~ bus;
#X obj 451 599 tabwrite~ buffer_\$1;
#X obj 384 425 f 0;
#X obj 384 450 select 0;
#X msg 418 425 1;
#X obj 384 398 t b f;
#X obj 552 488 f 20;
#X obj 616 516 f 20;
#X obj 539 22 bng 15 250 50 0 empty empty empty 17 7 0 10 -262144 -1
-1;
#X obj 15 573 f \$1;
#X obj 15 596 print arg1:;
#X obj 17 551 bng 15 250 50 0 empty empty empty 17 7 0 10 -262144 -1
-1;
#X text 41 548 DEBUG!!!;
#X obj 12 450 tabplay~ playBuffer;
#X obj 585 549 line 1 20;
#X floatatom 356 476 5 0 0 0 - - -;
#X obj 347 387 bng 15 250 50 0 empty empty empty 17 7 0 10 -262144
-1 -1;
#X obj 532 357 r \$0_recreset;
#X msg 529 379 0;
#X obj 413 512 s \$0_recreset;
#X obj 379 321 select 0;
#X obj 377 345 s \$0_voldown;
#X obj 518 432 r \$0_voldown;
#X obj 532 405 s \$0_recmosoff;
#X obj 449 457 s volup;
#X obj 584 457 r \$0_volup;
#X obj 421 367 t b b;
#X obj 449 391 s \$0_volup;
#X connect 0 0 1 0;
#X connect 1 0 30 0;
#X connect 1 1 22 0;
#X connect 3 0 46 0;
#X connect 4 0 47 0;
#X connect 5 0 74 0;
#X connect 5 1 60 0;
#X connect 5 1 70 0;
#X connect 8 0 13 0;
#X connect 8 0 17 0;
#X connect 9 0 8 0;
#X connect 10 0 46 1;
#X connect 10 0 47 1;
#X connect 10 0 12 1;
#X connect 11 0 12 0;
#X connect 12 0 14 0;
#X connect 12 0 15 0;
#X connect 15 0 23 0;
#X connect 15 0 54 0;
#X connect 16 0 25 0;
#X connect 17 0 55 0;
#X connect 17 1 53 0;
#X connect 17 1 56 0;
#X connect 18 0 16 1;
#X connect 19 0 16 1;
#X connect 20 0 48 0;
#X connect 21 0 41 0;
#X connect 22 0 8 0;
#X connect 22 1 12 0;
#X connect 24 0 16 1;
#X connect 27 0 5 0;
#X connect 29 0 41 0;
#X connect 31 0 39 0;
#X connect 31 1 33 0;
#X connect 31 2 34 0;
#X connect 31 3 37 0;
#X connect 34 0 36 0;
#X connect 37 0 32 0;
#X connect 38 0 34 1;
#X connect 38 0 35 0;
#X connect 39 0 68 0;
#X connect 40 0 71 0;
#X connect 40 1 45 0;
#X connect 40 1 18 0;
#X connect 41 0 43 0;
#X connect 41 1 42 0;
#X connect 42 0 24 1;
#X connect 43 0 24 0;
#X connect 45 0 44 0;
#X connect 46 0 8 1;
#X connect 47 0 12 1;
#X connect 48 0 50 0;
#X connect 48 1 49 0;
#X connect 49 0 51 1;
#X connect 50 0 51 0;
#X connect 51 0 16 1;
#X connect 52 0 26 0;
#X connect 52 0 40 0;
#X connect 52 1 19 0;
#X connect 52 2 20 0;
#X connect 52 3 20 1;
#X connect 54 0 21 0;
#X connect 54 1 21 1;
#X connect 55 0 26 0;
#X connect 55 0 40 0;
#X connect 55 1 18 0;
#X connect 56 0 52 0;
#X connect 57 0 58 0;
#X connect 58 0 59 0;
#X connect 58 1 5 0;
#X connect 59 0 5 0;
#X connect 60 0 61 0;
#X connect 63 0 31 0;
#X connect 68 0 33 0;
#X connect 69 0 68 1;
#X connect 71 0 16 0;
#X connect 72 0 71 1;
#X connect 74 0 6 0;
#X connect 75 0 76 0;
#X connect 76 0 78 0;
#X connect 76 1 77 0;
#X connect 77 0 74 1;
#X connect 78 0 74 1;
#X connect 83 0 120 0;
#X connect 83 1 85 0;
#X connect 83 2 86 0;
#X connect 83 3 88 0;
#X connect 86 0 87 0;
#X connect 88 0 84 0;
#X connect 89 0 85 0;
#X connect 90 0 83 0;
#X connect 91 0 89 1;
#X connect 93 0 86 1;
#X connect 93 0 92 0;
#X connect 99 0 127 0;
#X connect 100 0 106 0;
#X connect 100 1 126 0;
#X connect 101 0 106 1;
#X connect 102 0 103 0;
#X connect 102 1 113 0;
#X connect 103 0 101 0;
#X connect 104 0 105 0;
#X connect 104 1 114 0;
#X connect 105 0 121 0;
#X connect 106 0 107 0;
#X connect 106 0 108 0;
#X connect 109 0 110 0;
#X connect 109 0 122 0;
#X connect 110 0 100 0;
#X connect 110 0 111 0;
#X connect 110 0 108 0;
#X connect 110 1 131 0;
#X connect 111 0 109 1;
#X connect 112 0 109 0;
#X connect 113 0 101 1;
#X connect 114 0 121 1;
#X connect 115 0 5 0;
#X connect 116 0 117 0;
#X connect 118 0 116 0;
#X connect 120 0 89 0;
#X connect 121 0 106 1;
#X connect 123 0 109 0;
#X connect 124 0 125 0;
#X connect 125 0 130 0;
#X connect 125 0 109 1;
#X connect 127 0 128 0;
#X connect 127 1 133 0;
#X connect 129 0 102 0;
#X connect 132 0 104 0;
#X connect 133 0 112 0;
#X connect 133 1 134 0;
#X coords 0 -1 1 1 225 60 2 105 -30;
